<?xml version="1.0" encoding="UTF-8" standalone="no"?>
<!-- Created with Inkscape (http://www.inkscape.org/) -->

<svg
   width="231.64062"
   height="150"
   viewBox="0 0 61.288197 39.687534"
   version="1.1"
   id="svg1"
   inkscape:version="1.4.2 (ebf0e940d0, 2025-05-08)"
   sodipodi:docname="logo.svg"
   xmlns:inkscape="http://www.inkscape.org/namespaces/inkscape"
   xmlns:sodipodi="http://sodipodi.sourceforge.net/DTD/sodipodi-0.dtd"
   xmlns="http://www.w3.org/2000/svg"
   xmlns:svg="http://www.w3.org/2000/svg">
  <sodipodi:namedview
     id="namedview1"
     pagecolor="#ffffff"
     bordercolor="#000000"
     borderopacity="0.25"
     inkscape:showpageshadow="2"
     inkscape:pageopacity="0.0"
     inkscape:pagecheckerboard="0"
     inkscape:deskcolor="#d1d1d1"
     inkscape:document-units="mm"
     inkscape:zoom="3.1218764"
     inkscape:cx="107.46742"
     inkscape:cy="110.02998"
     inkscape:window-width="1920"
     inkscape:window-height="1128"
     inkscape:window-x="0"
     inkscape:window-y="0"
     inkscape:window-maximized="1"
     inkscape:current-layer="layer1"
     showguides="true" />
  <defs
     id="defs1" />
  <g
     inkscape:label="Réteg 1"
     inkscape:groupmode="layer"
     id="layer1">
    <path
       id="path17"
       style="fill:#000080;stroke-width:7.31313"
       d="m 55.176261,10.313153 c -11.667729,0.02513 -23.337812,-0.0019 -35.00646,0.0092 -5.1766,0.01625 -10.3567599,-0.02307 -15.5311339,0.03898 -1.8162278,0.132862 -3.91795684,1.041176 -4.43571025,3.008935 -0.41387271,1.845041 1.21034555,3.429149 2.82204755,3.861039 2.1646702,0.676397 4.4526512,0.241801 6.6739821,0.368918 5.8915965,0 11.7831925,0 17.6747895,0 0.600875,-2.035547 2.967055,-3.334304 4.906928,-2.469093 1.063435,0.4296 1.802399,1.408882 2.228727,2.469093 7.585657,-0.01328 15.173866,0.04393 22.75789,-0.04105 1.811487,-0.144207 3.908135,-1.060156 4.39803,-3.035416 0.401595,-1.840765 -1.228836,-3.400476 -2.829411,-3.833656 -1.177865,-0.393128 -2.434153,-0.396315 -3.659679,-0.376984 z" />
    <path
       id="path19"
       style="fill:#000080;stroke-width:7.31313"
       d="m 55.154088,22.695474 c -6.95117,0.0284 -13.904544,-7.55e-4 -20.856608,0.0098 -0.818131,2.022338 -3.449439,3.020642 -5.276268,1.806696 -0.699416,-0.412235 -1.191628,-1.093993 -1.576617,-1.806696 -7.620311,0.01218 -15.244176,-0.03308 -22.8622602,0.0365 -1.8408082,0.131804 -3.98205352,1.074786 -4.45818868,3.090455 -0.34047075,1.833314 1.26885858,3.356205 2.86185308,3.791016 2.1624075,0.658407 4.4394158,0.231847 6.6547572,0.357485 15.8223236,-0.01054 31.6469326,0.03006 47.4678236,-0.02875 1.835367,-0.129357 3.974475,-1.0277 4.498257,-3.022604 0.406451,-1.843632 -1.211855,-3.422107 -2.821614,-3.856522 -1.169015,-0.389736 -2.414402,-0.402052 -3.631135,-0.377341 z" />
    <path
       id="path13"
       style="fill:#000080;stroke-width:2.904"
       d="m 30.864208,14.564908 c 2.794937,-4e-5 5.45125,1.217414 7.275775,3.334671 0.625805,0.726187 1.139361,1.541977 1.523599,2.420239 -0.384238,0.878258 -0.897794,1.694049 -1.523599,2.420237 -1.824525,2.117256 -4.480838,3.334715 -7.275775,3.334674 -2.794938,4.1e-5 -5.451248,-1.217418 -7.275773,-3.334674 -0.61904,-0.727447 -1.126101,-1.543168 -1.504438,-2.420237 0.378337,-0.877069 0.885398,-1.692792 1.504438,-2.420239 1.824525,-2.117257 4.480838,-3.334711 7.275773,-3.334671 z m 0,2.190261 c -2.582994,0.0066 -4.976353,1.357132 -6.317536,3.564649 1.341183,2.207515 3.734542,3.557959 6.317536,3.564648 2.582994,-0.0066 4.976353,-1.357133 6.317537,-3.564648 -1.341184,-2.207517 -3.734543,-3.557961 -6.317537,-3.564649 z"
       sodipodi:nodetypes="cccccccccccccc" />
    <path
       id="path14"
       style="fill:#000080;stroke-width:1.44972"
       d="m 30.873794,15.009077 c 2.648013,5e-6 4.794649,2.146647 4.794654,4.794663 -5e-6,2.648013 -2.146641,4.794651 -4.794654,4.794656 -2.648015,-5e-6 -4.794659,-2.146643 -4.794664,-4.794656 5e-6,-2.648021 2.146642,-4.794658 4.794664,-4.794663 z m 0,1.093151 c -2.044296,-9e-6 -3.701512,1.956604 -3.701512,3.701512 0,1.744904 1.657216,3.701513 3.701512,3.701504 2.044286,9e-6 3.701513,-1.657218 3.701504,-3.701504 9e-6,-2.044294 -1.657213,-3.701521 -3.701504,-3.701512 z"
       sodipodi:nodetypes="sssssczccc" />
    <path
       id="path15"
       style="fill:#000080;stroke-width:5.50182"
       d="M 29.902403,0.1767922 C 22.427802,0.46088073 15.388635,5.4663216 12.651041,12.426195 c -2.596418,6.355469 -1.581929,14.062153 2.707636,19.448725 3.965632,5.122207 10.564816,8.090756 17.034203,7.530216 6.503073,-0.48033 12.638092,-4.417114 15.731904,-10.166743 C 51.46877,23.165104 51.315681,15.297481 47.569626,9.4355015 44.223547,4.0319603 38.1469,0.38163589 31.768772,0.18207107 31.147325,0.15066757 30.524305,0.15922285 29.902403,0.17678926 Z m 0.985027,7.0366753 c 4.719158,-0.057329 9.244888,2.8404505 11.291188,7.0155425 2.435657,4.815297 1.30551,11.143307 -2.697494,14.776352 -3.620006,3.416776 -9.348081,4.413469 -13.857284,2.241405 -4.436296,-1.993419 -7.486071,-6.732752 -7.337802,-11.611856 0.04389,-3.950452 2.030858,-7.834755 5.295747,-10.0851673 C 25.699163,8.03367 28.280378,7.1938004 30.88743,7.2134675 Z" />
    <circle
       style="fill:#000080;stroke-width:4.03639"
       id="path16"
       cx="-30.873791"
       cy="20.002232"
       r="2.0766909"
       transform="scale(-1,1)" />
  </g>
</svg>
