<?xml version="1.0" encoding="UTF-8" standalone="no"?>
<!-- Created with Inkscape (http://www.inkscape.org/) -->

<svg
   width="203.129mm"
   height="62mm"
   viewBox="0 0 203.129 62"
   version="1.1"
   id="svg1"
   sodipodi:docname="vonat1.svg"
   inkscape:version="1.4.2 (ebf0e940d0, 2025-05-08)"
   inkscape:export-filename="vonat1.png"
   inkscape:export-xdpi="96"
   inkscape:export-ydpi="96"
   xmlns:inkscape="http://www.inkscape.org/namespaces/inkscape"
   xmlns:sodipodi="http://sodipodi.sourceforge.net/DTD/sodipodi-0.dtd"
   xmlns="http://www.w3.org/2000/svg"
   xmlns:svg="http://www.w3.org/2000/svg">
  <sodipodi:namedview
     id="namedview1"
     pagecolor="#ffffff"
     bordercolor="#000000"
     borderopacity="0.25"
     inkscape:showpageshadow="2"
     inkscape:pageopacity="0.0"
     inkscape:pagecheckerboard="0"
     inkscape:deskcolor="#d1d1d1"
     inkscape:document-units="mm"
     inkscape:zoom="3.3544051"
     inkscape:cx="142.64824"
     inkscape:cy="161.42952"
     inkscape:window-width="1920"
     inkscape:window-height="1128"
     inkscape:window-x="0"
     inkscape:window-y="0"
     inkscape:window-maximized="1"
     inkscape:current-layer="g1"
     showguides="false" />
  <defs
     id="defs1">
    <clipPath
       clipPathUnits="userSpaceOnUse"
       id="clipPath5">
      <path
         d="M 0,595.276 H 841.89 V 0 H 0 Z"
         transform="translate(-676.82942,-68.801899)"
         id="path5" />
    </clipPath>
    <clipPath
       clipPathUnits="userSpaceOnUse"
       id="clipPath7">
      <path
         d="M 0,595.276 H 841.89 V 0 H 0 Z"
         transform="translate(-191.00001,-192.0115)"
         id="path7" />
    </clipPath>
    <clipPath
       clipPathUnits="userSpaceOnUse"
       id="clipPath9">
      <path
         d="M 0,595.276 H 841.89 V 0 H 0 Z"
         transform="translate(-259.8862,-93.842202)"
         id="path9" />
    </clipPath>
    <clipPath
       clipPathUnits="userSpaceOnUse"
       id="clipPath11">
      <path
         d="M 0,595.276 H 841.89 V 0 H 0 Z"
         transform="translate(-123.18981,-135.2089)"
         id="path11" />
    </clipPath>
    <clipPath
       clipPathUnits="userSpaceOnUse"
       id="clipPath12">
      <path
         d="m 123.266,175.06 h 64.77 v -47.568 h -64.77 z"
         transform="translate(-123.2656,-135.4319)"
         id="path12" />
    </clipPath>
    <clipPath
       clipPathUnits="userSpaceOnUse"
       id="clipPath16">
      <path
         d="M 0,595.276 H 841.89 V 0 H 0 Z"
         transform="translate(-110.2161,-88.944005)"
         id="path16" />
    </clipPath>
    <clipPath
       clipPathUnits="userSpaceOnUse"
       id="clipPath18">
      <path
         d="M 0,595.276 H 841.89 V 0 H 0 Z"
         transform="translate(-515.87951,-157.6024)"
         id="path18" />
    </clipPath>
    <clipPath
       clipPathUnits="userSpaceOnUse"
       id="clipPath19">
      <path
         d="m 509.194,150.845 h 64.227 V 98.9345 h -64.227 z"
         transform="translate(-573.42071,-150.62521)"
         id="path19" />
    </clipPath>
    <clipPath
       clipPathUnits="userSpaceOnUse"
       id="clipPath23">
      <path
         d="M 0,595.276 H 841.89 V 0 H 0 Z"
         transform="translate(-347.44641,-158.932)"
         id="path23" />
    </clipPath>
    <clipPath
       clipPathUnits="userSpaceOnUse"
       id="clipPath24">
      <path
         d="m 341.172,151.172 h 64.226 V 99.2612 h -64.226 z"
         transform="translate(-405.39831,-150.95191)"
         id="path24" />
    </clipPath>
    <clipPath
       clipPathUnits="userSpaceOnUse"
       id="clipPath28">
      <path
         d="M 0,595.276 H 841.89 V 0 H 0 Z"
         transform="translate(-428.40171,-172.94821)"
         id="path28" />
    </clipPath>
    <clipPath
       clipPathUnits="userSpaceOnUse"
       id="clipPath30">
      <path
         d="M 0,595.276 H 841.89 V 0 H 0 Z"
         transform="translate(-439.02541,-163.1108)"
         id="path30" />
    </clipPath>
    <clipPath
       clipPathUnits="userSpaceOnUse"
       id="clipPath32">
      <path
         d="M 0,595.276 H 841.89 V 0 H 0 Z"
         transform="translate(-474.40111,-163.1599)"
         id="path32" />
    </clipPath>
    <clipPath
       clipPathUnits="userSpaceOnUse"
       id="clipPath34">
      <path
         d="M 0,595.276 H 841.89 V 0 H 0 Z"
         transform="translate(-595.65652,-157.6024)"
         id="path34" />
    </clipPath>
    <clipPath
       clipPathUnits="userSpaceOnUse"
       id="clipPath35">
      <path
         d="m 588.897,150.78 h 64.227 V 98.8695 h -64.227 z"
         transform="translate(-653.12362,-150.5602)"
         id="path35" />
    </clipPath>
    <clipPath
       clipPathUnits="userSpaceOnUse"
       id="clipPath39">
      <path
         d="M 0,595.276 H 841.89 V 0 H 0 Z"
         transform="translate(-266.13631,-158.50201)"
         id="path39" />
    </clipPath>
    <clipPath
       clipPathUnits="userSpaceOnUse"
       id="clipPath40">
      <path
         d="m 259.635,150.78 h 66.091 v -31.305 h -66.091 z"
         transform="translate(-325.22801,-150.7805)"
         id="path40" />
    </clipPath>
    <clipPath
       clipPathUnits="userSpaceOnUse"
       id="clipPath44">
      <path
         d="M 0,595.276 H 841.89 V 0 H 0 Z"
         id="path44" />
    </clipPath>
    <clipPath
       clipPathUnits="userSpaceOnUse"
       id="clipPath46">
      <path
         d="M 0,595.276 H 841.89 V 0 H 0 Z"
         transform="translate(-258.68091,-67.665904)"
         id="path46" />
    </clipPath>
    <clipPath
       clipPathUnits="userSpaceOnUse"
       id="clipPath48">
      <path
         d="M 0,595.276 H 841.89 V 0 H 0 Z"
         transform="translate(-263.4679,-67.565802)"
         id="path48" />
    </clipPath>
    <clipPath
       clipPathUnits="userSpaceOnUse"
       id="clipPath50">
      <path
         d="M 0,595.276 H 841.89 V 0 H 0 Z"
         transform="translate(-159.4737,-67.698799)"
         id="path50" />
    </clipPath>
    <clipPath
       clipPathUnits="userSpaceOnUse"
       id="clipPath52">
      <path
         d="M 0,595.276 H 841.89 V 0 H 0 Z"
         transform="translate(-164.2683,-67.696204)"
         id="path52" />
    </clipPath>
    <clipPath
       clipPathUnits="userSpaceOnUse"
       id="clipPath54">
      <path
         d="M 0,595.276 H 841.89 V 0 H 0 Z"
         transform="translate(-274.18021,-70.733202)"
         id="path54" />
    </clipPath>
    <clipPath
       clipPathUnits="userSpaceOnUse"
       id="clipPath56">
      <path
         d="M 0,595.276 H 841.89 V 0 H 0 Z"
         transform="translate(-174.99891,-70.733202)"
         id="path56" />
    </clipPath>
    <clipPath
       clipPathUnits="userSpaceOnUse"
       id="clipPath58">
      <path
         d="M 0,595.276 H 841.89 V 0 H 0 Z"
         transform="translate(-230.30451,-78.118204)"
         id="path58" />
    </clipPath>
    <clipPath
       clipPathUnits="userSpaceOnUse"
       id="clipPath60">
      <path
         d="M 0,595.276 H 841.89 V 0 H 0 Z"
         id="path60" />
    </clipPath>
    <clipPath
       clipPathUnits="userSpaceOnUse"
       id="clipPath62">
      <path
         d="M 0,595.276 H 841.89 V 0 H 0 Z"
         transform="translate(-611.66312,-67.698799)"
         id="path62" />
    </clipPath>
    <clipPath
       clipPathUnits="userSpaceOnUse"
       id="clipPath64">
      <path
         d="M 0,595.276 H 841.89 V 0 H 0 Z"
         transform="translate(-616.45781,-67.696204)"
         id="path64" />
    </clipPath>
    <clipPath
       clipPathUnits="userSpaceOnUse"
       id="clipPath66">
      <path
         d="M 0,595.276 H 841.89 V 0 H 0 Z"
         transform="translate(-627.18842,-70.733202)"
         id="path66" />
    </clipPath>
    <clipPath
       clipPathUnits="userSpaceOnUse"
       id="clipPath68">
      <path
         d="M 0,595.276 H 841.89 V 0 H 0 Z"
         transform="translate(-677.15792,-87.8072)"
         id="path68" />
    </clipPath>
    <clipPath
       clipPathUnits="userSpaceOnUse"
       id="clipPath211">
      <path
         d="M 0,595.276 H 841.89 V 0 H 0 Z"
         transform="translate(-460.23161,-67.912399)"
         id="path211" />
    </clipPath>
    <clipPath
       clipPathUnits="userSpaceOnUse"
       id="clipPath215">
      <path
         d="M 0,595.276 H 841.89 V 0 H 0 Z"
         transform="translate(-280.4656,-113.4727)"
         id="path215" />
    </clipPath>
    <clipPath
       clipPathUnits="userSpaceOnUse"
       id="clipPath217">
      <path
         d="M 0,595.276 H 841.89 V 0 H 0 Z"
         transform="translate(-287.93181,-116.59921)"
         id="path217" />
    </clipPath>
    <clipPath
       clipPathUnits="userSpaceOnUse"
       id="clipPath219">
      <path
         d="M 0,595.276 H 841.89 V 0 H 0 Z"
         transform="translate(-303.18641,-113.4727)"
         id="path219" />
    </clipPath>
    <clipPath
       clipPathUnits="userSpaceOnUse"
       id="clipPath221">
      <path
         d="M 0,595.276 H 841.89 V 0 H 0 Z"
         transform="translate(-323.53381,-111.1264)"
         id="path221" />
    </clipPath>
    <clipPath
       clipPathUnits="userSpaceOnUse"
       id="clipPath223">
      <path
         d="M 0,595.276 H 841.89 V 0 H 0 Z"
         transform="translate(-278.88681,-98.674505)"
         id="path223" />
    </clipPath>
    <clipPath
       clipPathUnits="userSpaceOnUse"
       id="clipPath225">
      <path
         d="M 0,595.276 H 841.89 V 0 H 0 Z"
         transform="translate(-283.63321,-100.66681)"
         id="path225" />
    </clipPath>
    <clipPath
       clipPathUnits="userSpaceOnUse"
       id="clipPath227">
      <path
         d="M 0,595.276 H 841.89 V 0 H 0 Z"
         transform="translate(-285.78861,-98.674505)"
         id="path227" />
    </clipPath>
    <clipPath
       clipPathUnits="userSpaceOnUse"
       id="clipPath229">
      <path
         d="M 0,595.276 H 841.89 V 0 H 0 Z"
         transform="translate(-289.1059,-100.66681)"
         id="path229" />
    </clipPath>
    <clipPath
       clipPathUnits="userSpaceOnUse"
       id="clipPath231">
      <path
         d="M 0,595.276 H 841.89 V 0 H 0 Z"
         id="path231" />
    </clipPath>
    <clipPath
       clipPathUnits="userSpaceOnUse"
       id="clipPath233">
      <path
         d="M 0,595.276 H 841.89 V 0 H 0 Z"
         transform="translate(-292.12791,-98.263302)"
         id="path233" />
    </clipPath>
    <clipPath
       clipPathUnits="userSpaceOnUse"
       id="clipPath235">
      <path
         d="M 0,595.276 H 841.89 V 0 H 0 Z"
         transform="translate(-294.32311,-98.2649)"
         id="path235" />
    </clipPath>
    <clipPath
       clipPathUnits="userSpaceOnUse"
       id="clipPath237">
      <path
         d="M 0,595.276 H 841.89 V 0 H 0 Z"
         transform="translate(-296.94291,-98.263302)"
         id="path237" />
    </clipPath>
    <clipPath
       clipPathUnits="userSpaceOnUse"
       id="clipPath239">
      <path
         d="M 0,595.276 H 841.89 V 0 H 0 Z"
         transform="translate(-299.66451,-100.67)"
         id="path239" />
    </clipPath>
    <clipPath
       clipPathUnits="userSpaceOnUse"
       id="clipPath241">
      <path
         d="M 0,595.276 H 841.89 V 0 H 0 Z"
         transform="translate(-302.16571,-98.263302)"
         id="path241" />
    </clipPath>
    <clipPath
       clipPathUnits="userSpaceOnUse"
       id="clipPath243">
      <path
         d="M 0,595.276 H 841.89 V 0 H 0 Z"
         transform="translate(-305.99441,-98.378502)"
         id="path243" />
    </clipPath>
    <clipPath
       clipPathUnits="userSpaceOnUse"
       id="clipPath245">
      <path
         d="M 0,595.276 H 841.89 V 0 H 0 Z"
         transform="translate(-308.40851,-99.9725)"
         id="path245" />
    </clipPath>
    <clipPath
       clipPathUnits="userSpaceOnUse"
       id="clipPath247">
      <path
         d="M 0,595.276 H 841.89 V 0 H 0 Z"
         transform="translate(-311.50161,-99.9725)"
         id="path247" />
    </clipPath>
    <clipPath
       clipPathUnits="userSpaceOnUse"
       id="clipPath249">
      <path
         d="M 0,595.276 H 841.89 V 0 H 0 Z"
         transform="translate(-313.20351,-98.674505)"
         id="path249" />
    </clipPath>
    <clipPath
       clipPathUnits="userSpaceOnUse"
       id="clipPath251">
      <path
         d="M 0,595.276 H 841.89 V 0 H 0 Z"
         transform="translate(-316.69001,-99.6863)"
         id="path251" />
    </clipPath>
    <clipPath
       clipPathUnits="userSpaceOnUse"
       id="clipPath253">
      <path
         d="M 0,595.276 H 841.89 V 0 H 0 Z"
         transform="translate(-319.05791,-100.66681)"
         id="path253" />
    </clipPath>
    <clipPath
       clipPathUnits="userSpaceOnUse"
       id="clipPath255">
      <path
         d="M 0,595.276 H 841.89 V 0 H 0 Z"
         transform="translate(-321.04101,-98.674505)"
         id="path255" />
    </clipPath>
    <clipPath
       clipPathUnits="userSpaceOnUse"
       id="clipPath1">
      <path
         d="M -653.12363,444.71581 H 188.76639 V -150.5602 h -841.89002 z"
         id="path1"
         style="stroke-width:1" />
    </clipPath>
    <clipPath
       clipPathUnits="userSpaceOnUse"
       id="clipPath2">
      <path
         d="M -325.22801,444.49552 H 516.66201 V -150.7805 h -841.89002 z"
         id="path2"
         style="stroke-width:1" />
    </clipPath>
    <clipPath
       clipPathUnits="userSpaceOnUse"
       id="clipPath3">
      <path
         d="M -573.42073,444.65081 H 268.46929 V -150.6252 h -841.89002 z"
         id="path3"
         style="stroke-width:1" />
    </clipPath>
    <clipPath
       clipPathUnits="userSpaceOnUse"
       id="clipPath4">
      <path
         d="M -405.39832,444.32411 H 436.4917 V -150.9519 h -841.89002 z"
         id="path14"
         style="stroke-width:1" />
    </clipPath>
  </defs>
  <path
     id="rect21"
     style="fill:#ffffff;stroke-width:2.265"
     d="M 44.028837 0.17880046 C 19.811261 0.17880046 0.17880046 19.811261 0.17880046 44.028837 L 0.17880046 50.032605 C 0.17880046 53.295593 2.8239786 55.941288 6.086967 55.941288 L 202.9504 55.941288 L 202.9504 0.17880046 L 44.028837 0.17880046 z " />
  <path
     id="path6"
     d="M 0,0 H 485.829 V 33.02 H 41.501 C 2.782,33.02 -31.739,15.066 -54.207,-12.965 -37.935,-4.676 -19.514,0 0,0"
     style="fill:#505465;fill-opacity:1;fill-rule:nonzero;stroke:none"
     transform="matrix(0.35766616,0,0,-0.35766616,29.185419,11.873226)"
     clip-path="url(#clipPath7)" />
  <path
     id="path8"
     d="M 0,0 H 416.925 V 84.473 H 84.34 C 12.48,84.473 -44.612,55.547 -61.854,18.375 -64.961,11.681 -60.17,7.302 -56.57,6.173 -46.103,2.889 -18.077,0 0,0"
     style="fill:#3358b0;fill-opacity:1;fill-rule:nonzero;stroke:none"
     transform="matrix(0.35766616,0,0,-0.35766616,53.823681,46.985064)"
     clip-path="url(#clipPath9)" />
  <path
     id="path10"
     d="m 0,0 c 0,0 5.908,17.394 12.541,26.192 6.632,8.797 17.05,16.814 23.911,17.222 6.862,0.408 20.905,1.454 23.366,1.226 2.46,-0.229 3.861,-3.579 3.901,-5.05 0.04,-1.471 1.439,-40.834 0.947,-42.763 -0.493,-1.928 -1.518,-4.388 -4.899,-4.405 -3.38,-0.018 -29.475,-1.171 -40.49,0.739 C 8.261,-4.93 1.017,-3.286 0,0"
     style="fill:#50ade5;fill-opacity:1;fill-rule:nonzero;stroke:none"
     transform="matrix(0.35766616,0,0,-0.35766616,4.9320042,32.189594)"
     clip-path="url(#clipPath11)" />
  <path
     d="m 0,0 c 0,0 63.679,41.061 63.719,39.59 0.04,-1.471 1.439,-40.834 0.947,-42.763 -0.493,-1.928 -1.518,-4.388 -4.899,-4.405 -3.38,-0.018 -29.475,-1.171 -40.49,0.739 C 8.261,-4.93 1.017,-3.286 0,0"
     style="opacity:0.5;fill:#3871c1;fill-opacity:1;fill-rule:nonzero;stroke:none"
     transform="matrix(0.35766616,0,0,-0.35766616,4.9591136,32.10984)"
     clip-path="url(#clipPath12)"
     id="path13" />
  <path
     id="path15"
     d="m 0,0 v -3.433 c 0,-9.124 7.396,-16.52 16.519,-16.52 h 550.41 V 0 Z"
     style="fill:#505465;fill-opacity:1;fill-rule:nonzero;stroke:none"
     transform="matrix(0.3577879,0,0,-0.35667788,0.29174969,48.756702)"
     clip-path="url(#clipPath16)" />
  <path
     id="path17"
     d="m 0,0 h 50.856 c 3.677,0 6.685,-3.172 6.685,-7.042 v -44.649 c 0,-3.873 -3.009,-7.041 -6.685,-7.041 H 0 c -3.676,0 -6.685,3.167 -6.685,7.041 V -7.042 C -6.685,-3.168 -3.677,0 0,0"
     style="fill:#50ade5;fill-opacity:1;fill-rule:evenodd;stroke:none"
     transform="matrix(0.35766616,0,0,-0.35766616,145.38382,24.180197)"
     clip-path="url(#clipPath18)" />
  <path
     d="m 0,0 v -44.649 c 0,-3.872 -3.009,-7.042 -6.685,-7.042 h -50.856 c -3.677,0 -6.685,3.167 -6.685,7.042 C -64.226,-44.649 0,3.871 0,0"
     style="opacity:0.5;fill:#3871c1;fill-opacity:1;fill-rule:evenodd;stroke:none"
     transform="matrix(0.35766616,0,0,-0.35766616,165.96437,26.675709)"
     clip-path="url(#clipPath3)"
     id="path20" />
  <path
     id="path22"
     d="m 0,0 h 51.322 c 3.711,0 6.746,-3.228 6.746,-7.169 v -21.275 -24.449 c 0,-3.942 -3.038,-7.169 -6.746,-7.169 H 0 c -3.709,0 -6.746,3.225 -6.746,7.169 V -7.169 C -6.746,-3.225 -3.71,0 0,0"
     style="fill:#50ade5;fill-opacity:1;fill-rule:evenodd;stroke:none"
     transform="matrix(0.35766616,0,0,-0.35766616,85.141004,23.704644)"
     clip-path="url(#clipPath23)" />
  <path
     d="m 0,0 v -44.649 c 0,-3.872 -3.009,-7.042 -6.685,-7.042 h -50.856 c -3.677,0 -6.685,3.167 -6.685,7.042 C -64.226,-44.649 0,3.871 0,0"
     style="opacity:0.5;fill:#3871c1;fill-opacity:1;fill-rule:evenodd;stroke:none"
     transform="matrix(0.35766616,0,0,-0.35766616,105.86844,26.55886)"
     clip-path="url(#clipPath4)"
     id="path25" />
  <path
     id="path27"
     d="m 0,0 h 63.164 c 1.931,0 3.51,-2.043 3.51,-4.543 V -105.028 H -3.51 V -4.543 C -3.51,-2.043 -1.931,0 0,0"
     style="fill:#f0c816;fill-opacity:1;fill-rule:evenodd;stroke:none"
     transform="matrix(0.35766616,0,0,-0.35766616,114.09598,18.691522)"
     clip-path="url(#clipPath28)" />
  <path
     id="path29"
     d="m 0,0 h 6.575 c 2.836,0 5.155,-1.981 5.155,-4.401 v -51.518 c 0,-2.42 -2.32,-4.4 -5.155,-4.4 H 0 c -2.836,0 -5.155,1.98 -5.155,4.4 V -4.401 C -5.155,-1.98 -2.836,0 0,0"
     style="fill:#505465;fill-opacity:1;fill-rule:evenodd;stroke:none"
     transform="matrix(0.35766616,0,0,-0.35766616,117.89571,22.210029)"
     clip-path="url(#clipPath30)" />
  <path
     id="path31"
     d="m 0,0 h 6.327 c 2.703,0 4.914,-1.989 4.914,-4.417 v -51.535 c 0,-2.43 -2.212,-4.416 -4.914,-4.416 H 0 c -2.703,0 -4.914,1.986 -4.914,4.416 V -4.417 C -4.914,-1.988 -2.703,0 0,0"
     style="fill:#505465;fill-opacity:1;fill-rule:evenodd;stroke:none"
     transform="matrix(0.35766616,0,0,-0.35766616,130.54841,22.192467)"
     clip-path="url(#clipPath32)" />
  <path
     id="path33"
     d="m 0,0 h 50.856 c 3.677,0 6.685,-3.172 6.685,-7.042 v -44.649 c 0,-3.873 -3.009,-7.041 -6.685,-7.041 H 0 c -3.676,0 -6.685,3.167 -6.685,7.041 V -7.042 C -6.685,-3.168 -3.677,0 0,0"
     style="fill:#50ade5;fill-opacity:1;fill-rule:evenodd;stroke:none"
     transform="matrix(0.35766616,0,0,-0.35766616,173.91736,24.180197)"
     clip-path="url(#clipPath34)" />
  <path
     d="m 0,0 v -44.649 c 0,-3.872 -3.009,-7.042 -6.685,-7.042 h -50.856 c -3.677,0 -6.685,3.167 -6.685,7.042 C -64.226,-44.649 0,3.871 0,0"
     style="opacity:0.5;fill:#3871c1;fill-opacity:1;fill-rule:evenodd;stroke:none"
     transform="matrix(0.35766616,0,0,-0.35766616,194.4714,26.698958)"
     clip-path="url(#clipPath1)"
     id="path36" />
  <path
     id="path38"
     d="m 0,0 h 52.092 c 3.85,0 6.911,-3.433 7,-7.624 l 0.498,-23.681 c 0,-4.194 -3.152,-7.624 -7,-7.624 H 0.497 c -3.848,0 -6.911,3.43 -6.998,7.624 L -6.999,-7.624 C -6.999,-3.43 -3.85,0 0,0"
     style="fill:#50ade5;fill-opacity:1;fill-rule:evenodd;stroke:none"
     transform="matrix(0.35766616,0,0,-0.35766616,56.059131,23.85844)"
     clip-path="url(#clipPath39)" />
  <path
     d="m 0,0 0.498,-23.682 c 0,-4.193 -3.152,-7.623 -6.999,-7.623 h -52.093 c -3.848,0 -6.911,3.43 -6.999,7.623"
     style="opacity:0.5;fill:#3871c1;fill-opacity:1;fill-rule:evenodd;stroke:none"
     transform="matrix(0.35766616,0,0,-0.35766616,77.194232,26.620165)"
     clip-path="url(#clipPath2)"
     id="path41" />
  <path
     id="path210"
     d="M 0,0 V 105.095"
     style="fill:none;stroke:#4f4c4d;stroke-width:1;stroke-linecap:butt;stroke-linejoin:miter;stroke-miterlimit:10;stroke-dasharray:none;stroke-opacity:1"
     transform="matrix(0.35766616,0,0,-0.35766616,125.48045,56.259277)"
     clip-path="url(#clipPath211)" />
  <path
     id="path214"
     d="m 0,0 v -10.283 h -3.377 v 4.303 l -2.682,-3.292 h -0.337 l -2.689,3.277 v -4.288 h -3.378 V 0 h 2.188 L -6.224,-5.012 -2.187,0 Z"
     style="fill:#ffffff;fill-opacity:1;fill-rule:nonzero;stroke:none"
     transform="matrix(0.35766616,0,0,-0.35766616,61.184236,39.963898)"
     clip-path="url(#clipPath215)" />
  <path
     id="path216"
     d="m 0,0 -1.291,-2.41 h 2.015 l 2.582,2.188 V 0 Z m -1.993,-3.126 -4.36,-10.283 h 3.377 l 0.602,1.599 h 4.109 l 0.603,-1.599 H 5.729 L 1.313,-3.126 Z m 1.656,-3.234 1.104,-2.904 h -2.201 z"
     style="fill:#ffffff;fill-opacity:1;fill-rule:nonzero;stroke:none"
     transform="matrix(0.35766616,0,0,-0.35766616,63.854645,38.845654)"
     clip-path="url(#clipPath217)" />
  <path
     id="path218"
     d="M 0,0 V -0.251 L -4.159,-10.283 H -7.45 l -4.095,10.046 V 0 h 3.421 L -5.772,-6.848 -3.456,0 Z"
     style="fill:#ffffff;fill-opacity:1;fill-rule:nonzero;stroke:none"
     transform="matrix(0.35766616,0,0,-0.35766616,69.310698,39.963898)"
     clip-path="url(#clipPath219)" />
  <path
     id="path220"
     d="m 0,0 h -4.471 c -0.898,1.517 -2.455,2.595 -4.271,2.815 -0.22,0.04 -0.459,0.059 -0.699,0.059 -2.116,0 -3.952,-1.157 -4.949,-2.874 h -4.472 l 0.599,-2.036 h 8.822 c 0.3,0 0.578,-0.179 0.698,-0.439 0.08,-0.12 0.12,-0.26 0.12,-0.379 0,-0.159 -0.04,-0.299 -0.12,-0.419 -0.12,-0.26 -0.398,-0.42 -0.698,-0.42 h -8.363 l 0.579,-2.034 h 2.835 c 0.997,-1.718 2.833,-2.876 4.949,-2.876 0.239,0 0.479,0 0.698,0.041 1.817,0.22 3.374,1.298 4.272,2.835 h 2.834 l 0.579,2.055 h -2.695 c 0.04,0.259 0.06,0.538 0.06,0.818 0,0.28 -0.02,0.539 -0.06,0.818 h 3.154 z m -8.742,-6.486 c -0.22,-0.04 -0.459,-0.06 -0.699,-0.06 -0.858,0 -1.676,0.299 -2.296,0.819 h 2.296 c 0.24,0 0.479,0.019 0.699,0.079 1.256,0.32 2.176,1.457 2.176,2.794 0,1.317 -0.92,2.435 -2.176,2.754 -0.22,0.06 -0.459,0.1 -0.699,0.1 h -2.296 c 0.62,0.52 1.438,0.818 2.296,0.818 0.24,0 0.479,-0.04 0.699,-0.079 1.696,-0.34 2.993,-1.837 2.993,-3.593 0,-1.796 -1.297,-3.294 -2.993,-3.632"
     style="fill:#ffffff;fill-opacity:1;fill-rule:nonzero;stroke:none"
     transform="matrix(0.35766616,0,0,-0.35766616,76.588275,40.80309)"
     clip-path="url(#clipPath221)" />
  <path
     id="path222"
     d="m 0,0 h -0.943 l -0.138,-0.367 h -0.775 l 1.001,2.359 h 0.758 L 0.916,-0.367 H 0.138 Z M -0.222,0.584 -0.475,1.25 -0.727,0.584 Z"
     style="fill:#ffffff;fill-opacity:1;fill-rule:nonzero;stroke:none"
     transform="matrix(0.35766616,0,0,-0.35766616,60.619554,45.256712)"
     clip-path="url(#clipPath223)" />
  <path
     id="path224"
     d="m 0,0 v -2.359 h -0.775 v 0.987 L -1.39,-2.127 h -0.078 l -0.616,0.752 V -2.359 H -2.859 V 0 h 0.501 l 0.93,-1.15 0.926,1.15 z"
     style="fill:#ffffff;fill-opacity:1;fill-rule:nonzero;stroke:none"
     transform="matrix(0.35766616,0,0,-0.35766616,62.31718,44.544134)"
     clip-path="url(#clipPath225)" />
  <path
     id="path226"
     d="m 0,0 h -0.943 l -0.138,-0.367 h -0.774 l 1,2.359 h 0.758 L 0.916,-0.367 H 0.138 Z M -0.222,0.584 -0.475,1.25 -0.727,0.584 Z m -0.01,1.573 h -0.462 l 0.296,0.552 H 0.36 v -0.05 z"
     style="fill:#ffffff;fill-opacity:1;fill-rule:nonzero;stroke:none"
     transform="matrix(0.35766616,0,0,-0.35766616,63.088095,45.256712)"
     clip-path="url(#clipPath227)" />
  <path
     id="path228"
     d="m 0,0 v -0.058 l -0.954,-2.301 h -0.755 l -0.94,2.305 V 0 h 0.785 L -1.324,-1.571 -0.793,0 Z"
     style="fill:#ffffff;fill-opacity:1;fill-rule:nonzero;stroke:none"
     transform="matrix(0.35766616,0,0,-0.35766616,64.274579,44.544134)"
     clip-path="url(#clipPath229)" />
  <path
     id="path230"
     d="m 289.278,99.793 h 1.147 v -0.617 h -1.147 z"
     style="fill:#ffffff;fill-opacity:1;fill-rule:nonzero;stroke:none"
     transform="matrix(0.35766616,0,0,-0.35766616,-39.128821,80.549243)"
     clip-path="url(#clipPath231)" />
  <path
     id="path232"
     d="m 0,0 c -0.38,0 -0.693,0.112 -0.938,0.337 -0.245,0.225 -0.366,0.518 -0.366,0.879 0,0.363 0.124,0.659 0.374,0.886 0.251,0.228 0.565,0.341 0.945,0.341 0.184,0 0.36,-0.026 0.528,-0.081 C 0.711,2.308 0.851,2.232 0.961,2.135 L 0.617,1.606 0.596,1.602 C 0.528,1.652 0.446,1.691 0.349,1.722 0.252,1.754 0.158,1.769 0.067,1.769 c -0.164,0 -0.302,-0.05 -0.412,-0.15 -0.111,-0.101 -0.167,-0.23 -0.167,-0.39 0,-0.166 0.065,-0.301 0.193,-0.405 0.128,-0.103 0.288,-0.156 0.479,-0.156 0.121,0 0.246,0.021 0.375,0.064 0.128,0.043 0.23,0.099 0.307,0.168 H 0.893 V 0.253 C 0.814,0.179 0.691,0.118 0.523,0.072 0.355,0.026 0.183,0.003 0.003,0.003 Z"
     style="fill:#ffffff;fill-opacity:1;fill-rule:nonzero;stroke:none"
     transform="matrix(0.35766616,0,0,-0.35766616,65.355448,45.403786)"
     clip-path="url(#clipPath233)" />
  <path
     id="path234"
     d="M 0,0 C -0.136,0 -0.286,0.015 -0.447,0.046 -0.609,0.077 -0.744,0.115 -0.851,0.16 l -0.09,0.672 0.01,0.007 c 0.122,-0.063 0.27,-0.113 0.442,-0.153 0.173,-0.04 0.328,-0.059 0.463,-0.059 0.191,0 0.286,0.042 0.286,0.128 0,0.058 -0.041,0.099 -0.125,0.122 L -0.428,1.018 C -0.584,1.063 -0.706,1.147 -0.791,1.268 -0.877,1.39 -0.92,1.53 -0.92,1.686 c 0,0.229 0.091,0.412 0.27,0.548 C -0.47,2.371 -0.229,2.44 0.076,2.44 0.222,2.44 0.37,2.425 0.52,2.395 0.669,2.366 0.783,2.33 0.859,2.285 V 1.642 C 0.768,1.698 0.651,1.744 0.507,1.778 0.362,1.813 0.229,1.831 0.109,1.831 c -0.178,0 -0.267,-0.043 -0.267,-0.13 0,-0.069 0.048,-0.117 0.145,-0.145 L 0.495,1.406 C 0.66,1.364 0.788,1.285 0.882,1.17 0.975,1.055 1.022,0.918 1.022,0.76 1.022,0.533 0.928,0.35 0.742,0.211 0.556,0.071 0.309,0.002 0.003,0.002 Z"
     style="fill:#ffffff;fill-opacity:1;fill-rule:nonzero;stroke:none"
     transform="matrix(0.35766616,0,0,-0.35766616,66.140596,45.403214)"
     clip-path="url(#clipPath235)" />
  <path
     id="path236"
     d="M 0,0 C -0.37,0 -0.676,0.115 -0.918,0.345 -1.16,0.576 -1.28,0.867 -1.28,1.221 c 0,0.35 0.123,0.641 0.37,0.873 0.247,0.232 0.551,0.347 0.913,0.347 0.37,0 0.676,-0.115 0.918,-0.344 C 1.163,1.869 1.285,1.578 1.285,1.224 1.285,0.87 1.163,0.579 0.918,0.349 0.673,0.118 0.367,0.003 0,0.003 Z m 0.355,0.828 c 0.091,0.1 0.137,0.232 0.137,0.394 0,0.157 -0.046,0.287 -0.14,0.389 C 0.258,1.713 0.141,1.763 0,1.763 -0.146,1.763 -0.265,1.713 -0.355,1.611 -0.446,1.509 -0.492,1.379 -0.492,1.219 -0.492,1.063 -0.446,0.933 -0.354,0.831 -0.262,0.729 -0.143,0.678 0,0.678 c 0.146,0 0.265,0.049 0.355,0.15"
     style="fill:#ffffff;fill-opacity:1;fill-rule:nonzero;stroke:none"
     transform="matrix(0.35766616,0,0,-0.35766616,67.077611,45.403786)"
     clip-path="url(#clipPath237)" />
  <path
     id="path238"
     d="m 0,0 c 0.276,0 0.502,-0.082 0.676,-0.247 0.175,-0.164 0.262,-0.365 0.262,-0.604 0,-0.231 -0.087,-0.432 -0.264,-0.602 -0.175,-0.169 -0.401,-0.253 -0.676,-0.253 h -0.306 v -0.656 h -0.714 v 2.359 h 1.02 z m 0.133,-1.064 c 0.051,0.047 0.076,0.111 0.076,0.191 0,0.074 -0.025,0.136 -0.076,0.187 -0.051,0.051 -0.117,0.076 -0.197,0.076 h -0.242 v -0.523 h 0.242 c 0.08,-0.002 0.146,0.021 0.197,0.069"
     style="fill:#ffffff;fill-opacity:1;fill-rule:nonzero;stroke:none"
     transform="matrix(0.35766616,0,0,-0.35766616,68.051035,44.542991)"
     clip-path="url(#clipPath239)" />
  <path
     id="path240"
     d="M 0,0 C -0.37,0 -0.676,0.115 -0.918,0.345 -1.16,0.576 -1.28,0.867 -1.28,1.221 c 0,0.35 0.123,0.641 0.37,0.873 0.247,0.232 0.551,0.347 0.913,0.347 0.37,0 0.676,-0.115 0.918,-0.344 C 1.163,1.869 1.285,1.578 1.285,1.224 1.285,0.87 1.163,0.579 0.918,0.349 0.673,0.118 0.367,0.003 0,0.003 Z m 0.355,0.828 c 0.091,0.1 0.137,0.232 0.137,0.394 0,0.157 -0.046,0.287 -0.14,0.389 C 0.258,1.713 0.141,1.763 0,1.763 -0.146,1.763 -0.265,1.713 -0.355,1.611 -0.446,1.509 -0.492,1.379 -0.492,1.219 -0.492,1.063 -0.446,0.933 -0.354,0.831 -0.262,0.729 -0.143,0.678 0,0.678 c 0.146,0 0.265,0.049 0.355,0.15"
     style="fill:#ffffff;fill-opacity:1;fill-rule:nonzero;stroke:none"
     transform="matrix(0.35766616,0,0,-0.35766616,68.945629,45.403786)"
     clip-path="url(#clipPath241)" />
  <path
     id="path242"
     d="M 0,0 -0.033,-0.074 H -0.798 L -1.25,0.559 h -0.168 v -0.633 h -0.714 v 2.359 h 1.071 c 0.276,0 0.502,-0.081 0.676,-0.242 0.174,-0.161 0.262,-0.362 0.262,-0.602 0,-0.143 -0.036,-0.279 -0.109,-0.41 -0.072,-0.13 -0.173,-0.236 -0.301,-0.32 z m -1.421,1.089 h 0.222 c 0.113,-0.002 0.201,0.026 0.26,0.084 0.059,0.058 0.088,0.128 0.088,0.212 0,0.077 -0.029,0.145 -0.088,0.203 -0.059,0.057 -0.145,0.087 -0.257,0.087 h -0.222 z"
     style="fill:#ffffff;fill-opacity:1;fill-rule:nonzero;stroke:none"
     transform="matrix(0.35766616,0,0,-0.35766616,70.315024,45.362583)"
     clip-path="url(#clipPath243)" />
  <path
     id="path244"
     d="M 0,0 H -0.722 V -1.665 H -1.497 V 0 H -2.221 V 0.694 H 0 Z"
     style="fill:#ffffff;fill-opacity:1;fill-rule:nonzero;stroke:none"
     transform="matrix(0.35766616,0,0,-0.35766616,71.178466,44.792464)"
     clip-path="url(#clipPath245)" />
  <path
     id="path246"
     d="M 0,0 H -0.722 V -1.665 H -1.497 V 0 H -2.221 V 0.694 H 0 Z"
     style="fill:#ffffff;fill-opacity:1;fill-rule:nonzero;stroke:none"
     transform="matrix(0.35766616,0,0,-0.35766616,72.284765,44.792464)"
     clip-path="url(#clipPath247)" />
  <path
     id="path248"
     d="m 0,0 h -0.943 l -0.138,-0.367 h -0.774 l 1,2.359 h 0.758 L 0.916,-0.367 H 0.138 Z M -0.222,0.584 -0.475,1.25 -0.727,0.584 Z"
     style="fill:#ffffff;fill-opacity:1;fill-rule:nonzero;stroke:none"
     transform="matrix(0.35766616,0,0,-0.35766616,72.893477,45.256712)"
     clip-path="url(#clipPath249)" />
  <path
     id="path250"
     d="m 0,0 v -0.183 c 0,-0.337 -0.12,-0.628 -0.362,-0.873 -0.242,-0.245 -0.53,-0.367 -0.864,-0.367 -0.373,0 -0.682,0.115 -0.929,0.344 -0.247,0.228 -0.37,0.521 -0.37,0.877 0,0.353 0.126,0.644 0.38,0.875 0.253,0.23 0.569,0.345 0.946,0.345 0.176,0 0.347,-0.025 0.513,-0.074 0.166,-0.049 0.304,-0.115 0.415,-0.199 L -0.594,0.159 -0.614,0.153 c -0.156,0.113 -0.35,0.171 -0.582,0.171 -0.156,0 -0.285,-0.051 -0.385,-0.151 -0.1,-0.101 -0.15,-0.234 -0.15,-0.398 0,-0.162 0.05,-0.293 0.148,-0.394 0.099,-0.1 0.224,-0.151 0.374,-0.151 0.079,0 0.154,0.02 0.225,0.059 0.071,0.04 0.127,0.094 0.168,0.165 h -0.459 v 0.549 z"
     style="fill:#ffffff;fill-opacity:1;fill-rule:nonzero;stroke:none"
     transform="matrix(0.35766616,0,0,-0.35766616,74.140479,44.894828)"
     clip-path="url(#clipPath251)" />
  <path
     id="path252"
     d="m 0,0 v -1.334 c 0,-0.318 -0.099,-0.574 -0.296,-0.772 -0.198,-0.197 -0.446,-0.296 -0.744,-0.296 -0.306,0 -0.556,0.089 -0.752,0.267 -0.195,0.177 -0.292,0.409 -0.292,0.694 v 0.212 h 0.733 v -0.189 c 0,-0.091 0.03,-0.161 0.087,-0.212 0.058,-0.051 0.126,-0.078 0.204,-0.078 0.08,0 0.147,0.025 0.203,0.076 0.056,0.051 0.084,0.122 0.084,0.212 v 0.749 H -1.364 V 0 Z"
     style="fill:#ffffff;fill-opacity:1;fill-rule:nonzero;stroke:none"
     transform="matrix(0.35766616,0,0,-0.35766616,74.987396,44.544134)"
     clip-path="url(#clipPath253)" />
  <path
     id="path254"
     d="m 0,0 h -0.943 l -0.138,-0.367 h -0.774 l 1,2.359 h 0.758 L 0.916,-0.367 H 0.138 Z M -0.222,0.584 -0.475,1.25 -0.727,0.584 Z"
     style="fill:#ffffff;fill-opacity:1;fill-rule:nonzero;stroke:none"
     transform="matrix(0.35766616,0,0,-0.35766616,75.696686,45.256712)"
     clip-path="url(#clipPath255)" />
  <path
     id="path4"
     d="m 0,0 h -550.41 c -9.123,0 -16.519,7.396 -16.519,16.519 v 16.786 c 0,67.71 54.89,122.601 122.6,122.601 H 0 Z"
     style="fill:none;stroke:#231f20;stroke-width:1;stroke-linecap:butt;stroke-linejoin:miter;stroke-miterlimit:10;stroke-dasharray:none;stroke-opacity:1"
     transform="matrix(0.35766616,0,0,-0.35766616,202.95015,55.941132)"
     clip-path="url(#clipPath5)" />
  <g
     id="g1">
    <path
       id="path43"
       d="M 164.625,56.256 H 279.624 V 83.551 H 164.625 Z"
       style="fill:#28292b;fill-opacity:1;fill-rule:evenodd;stroke:none"
       transform="matrix(0.35766616,0,0,-0.35766616,-39.128821,80.549243)"
       clip-path="url(#clipPath44)" />
    <path
       id="path45"
       d="m 0,0 c 0,-8.726 7.076,-15.804 15.804,-15.804 8.726,0 15.803,7.078 15.803,15.804 0,8.726 -7.077,15.802 -15.803,15.802 C 7.076,15.802 0,8.726 0,0"
       style="fill:#404143;fill-opacity:1;fill-rule:evenodd;stroke:none"
       transform="matrix(0.35766616,0,0,-0.35766616,53.392587,56.34744)"
       clip-path="url(#clipPath46)" />
    <path
       id="path47"
       d="m 0,0 c 0,-6.083 4.933,-11.017 11.016,-11.017 6.083,0 11.016,4.934 11.016,11.017 0,6.083 -4.933,11.015 -11.016,11.015 C 4.933,11.015 0,6.083 0,0"
       style="fill:#161616;fill-opacity:1;fill-rule:evenodd;stroke:none"
       transform="matrix(0.35766616,0,0,-0.35766616,55.104734,56.383243)"
       clip-path="url(#clipPath48)" />
    <path
       id="path49"
       d="m 0,0 c 0,-8.741 7.089,-15.83 15.831,-15.83 8.741,0 15.831,7.089 15.831,15.83 0,8.743 -7.09,15.831 -15.831,15.831 C 7.089,15.831 0,8.743 0,0"
       style="fill:#404143;fill-opacity:1;fill-rule:evenodd;stroke:none"
       transform="matrix(0.35766616,0,0,-0.35766616,17.909527,56.335674)"
       clip-path="url(#clipPath50)" />
    <path
       id="path51"
       d="m 0,0 c 0,-6.094 4.941,-11.036 11.036,-11.036 6.093,0 11.035,4.942 11.035,11.036 0,6.094 -4.942,11.034 -11.035,11.034 C 4.941,11.034 0,6.094 0,0"
       style="fill:#161616;fill-opacity:1;fill-rule:evenodd;stroke:none"
       transform="matrix(0.35766616,0,0,-0.35766616,19.624393,56.336603)"
       clip-path="url(#clipPath52)" />
    <path
       id="path53"
       d="m 0,0 c 2.292,0 4.15,-1.858 4.15,-4.149 0,-2.292 -1.858,-4.15 -4.15,-4.15 -2.292,0 -4.15,1.858 -4.15,4.15 C -4.15,-1.858 -2.292,0 0,0"
       style="fill:#28292b;fill-opacity:1;fill-rule:evenodd;stroke:none"
       transform="matrix(0.35766616,0,0,-0.35766616,58.936162,55.250371)"
       clip-path="url(#clipPath54)" />
    <path
       id="path55"
       d="m 0,0 c 2.292,0 4.15,-1.858 4.15,-4.149 0,-2.292 -1.858,-4.15 -4.15,-4.15 -2.292,0 -4.15,1.858 -4.15,4.15 C -4.15,-1.858 -2.292,0 0,0"
       style="fill:#28292b;fill-opacity:1;fill-rule:evenodd;stroke:none"
       transform="matrix(0.35766616,0,0,-0.35766616,23.462367,55.250371)"
       clip-path="url(#clipPath56)" />
    <path
       id="path57"
       d="M 0,0 C 26.099,0 49.489,-2.052 65.401,-5.296 V 9.689 H -76.705 V -8.215 C -62.13,-3.329 -33.256,0 0,0"
       style="fill:#505465;fill-opacity:1;fill-rule:evenodd;stroke:none"
       transform="matrix(0.35766616,0,0,-0.35766616,43.243309,52.609006)"
       clip-path="url(#clipPath58)" />
    <g
       id="g2">
      <path
         id="path59"
         d="m 616.814,56.256 h 60.428 v 27.295 h -60.428 z"
         style="fill:#28292b;fill-opacity:1;fill-rule:evenodd;stroke:none"
         transform="matrix(0.35766616,0,0,-0.35766616,-39.128821,80.549243)"
         clip-path="url(#clipPath60)" />
      <path
         id="path61"
         d="m 0,0 c 0,-8.741 7.089,-15.83 15.831,-15.83 8.741,0 15.831,7.089 15.831,15.83 0,8.743 -7.09,15.831 -15.831,15.831 C 7.089,15.831 0,8.743 0,0"
         style="fill:#404143;fill-opacity:1;fill-rule:evenodd;stroke:none"
         transform="matrix(0.35766616,0,0,-0.35766616,179.64238,56.335674)"
         clip-path="url(#clipPath62)" />
      <path
         id="path63"
         d="m 0,0 c 0,-6.094 4.941,-11.036 11.036,-11.036 6.093,0 11.035,4.942 11.035,11.036 0,6.094 -4.942,11.034 -11.035,11.034 C 4.941,11.034 0,6.094 0,0"
         style="fill:#161616;fill-opacity:1;fill-rule:evenodd;stroke:none"
         transform="matrix(0.35766616,0,0,-0.35766616,181.35728,56.336603)"
         clip-path="url(#clipPath64)" />
      <path
         id="path65"
         d="m 0,0 c 2.292,0 4.15,-1.858 4.15,-4.149 0,-2.292 -1.858,-4.15 -4.15,-4.15 -2.292,0 -4.15,1.858 -4.15,4.15 C -4.15,-1.858 -2.292,0 0,0"
         style="fill:#28292b;fill-opacity:1;fill-rule:evenodd;stroke:none"
         transform="matrix(0.35766616,0,0,-0.35766616,185.19525,55.250371)"
         clip-path="url(#clipPath66)" />
      <path
         id="path67"
         d="m 0,0 h -70.368 v -17.904 c 13.64,4.573 39.807,7.781 70.368,8.174 z"
         style="fill:#505465;fill-opacity:1;fill-rule:evenodd;stroke:none"
         transform="matrix(0.35836673,0,0,-0.35766616,203.11695,49.14358)"
         clip-path="url(#clipPath68)" />
    </g>
  </g>
</svg>
